PathFileType	3	(X/Y/Z)	D:\minhoCalibration\240510\subject1_KPNP\preferred\preferred16.trc
DataRate	CameraRate	NumFrames	NumMarkers	Units	OrigDataRate	OrigDataStartFrame	OrigNumFrames
200.0	200.0	36	10	mm	200.0	371	185	
Frame#	Time	Left_Ankle_Outer1			Left_Ankle_Inner1			Left_Knee_Outer1			Left_Knee_Inner1			Left_Wrist1			Right_Wrist1			Right_Knee_Inner1			Right_Knee_Outer1			Right_Ankle_Inner1			Right_Ankle_Outer1			
		X1	Y1	Z1	X2	Y2	Z2	X3	Y3	Z3	X4	Y4	Z4	X5	Y5	Z5	X6	Y6	Z6	X7	Y7	Z7	X8	Y8	Z8	X9	Y9	Z9	X10	Y10	Z10	
371	1.845	-443.52264	138.27809	-548.55371	-497.20395	146.08298	-537.8573	-400.93805	572.08453	-407.55307	-507.67899	542.63879	-428.81714	-365.52734	1019.8734	-581.38159	-724.00623	1041.6394	-599.59277	-785.58673	623.2804	-375.2767	-884.80115	665.37677	-445.72006	-681.33551	472.77722	-775.79449	-770.86261	411.70319	-808.26996
372	1.85	-443.12704	139.80472	-548.86914	-496.63147	148.30431	-537.09894	-394.3811	574.88837	-414.591	-502.20715	546.62726	-430.85724	-361.95416	1024.1711	-589.77899	-721.1618	1047.8282	-588.16565	-771.94867	634.36548	-353.45297	-875.5976	675.69586	-418.72354	-681.91913	494.16138	-759.34607	-766.31421	432.34253	-788.65179
373	1.855	-443.09113	141.34888	-549.24774	-496.38522	150.56596	-535.81915	-387.5993	577.65381	-421.94434	-495.67722	549.51276	-435.06445	-359.00427	1028.3251	-598.63739	-717.7254	1054.9094	-577.12183	-757.16821	646.3739	-331.50229	-864.80353	686.85309	-391.43085	-683.25623	516.03741	-742.5108	-767.54462	454.94937	-764.74524
374	1.86	-442.99271	143.18723	-549.72845	-496.19238	152.89932	-534.40063	-380.35117	580.32874	-429.78876	-489.51706	552.37866	-438.1077	-356.7164	1032.1167	-607.84827	-714.07147	1061.5469	-566.88422	-741.07782	659.14722	-309.97766	-852.56885	698.88062	-364.33096	-685.49554	538.44897	-725.28052	-769.45221	473.4155	-751.80591
375	1.865	-443.15375	144.8992	-550.29346	-496.1452	155.43156	-533.05066	-373.31207	582.77087	-437.83746	-483.53604	556.28802	-438.62466	-354.63373	1035.8741	-617.39667	-709.99274	1068.3866	-557.15582	-723.95886	672.87024	-288.65732	-838.86041	711.94531	-337.29819	-688.48474	560.7821	-707.37885	-766.00256	489.72357	-715.78381
376	1.87	-443.31015	146.89044	-551.17188	-495.8606	157.59727	-530.89575	-366.69202	585.05908	-445.99448	-476.40421	558.48413	-442.03699	-353.10532	1039.3927	-627.25818	-704.93896	1075.5419	-547.93665	-705.66956	687.42017	-267.99713	-823.48163	725.86688	-310.53491	-690.73755	583.14624	-689.19421	-762.38751	506.59103	-679.62714
377	1.875	-444.10416	148.76303	-552.13776	-496.03857	160.09351	-529.54712	-360.2403	587.21436	-454.52676	-469.7222	561.82318	-442.54889	-352.33441	1042.4133	-637.18964	-699.75354	1081.8723	-539.21082	-686.13049	702.56061	-248.08128	-806.50653	740.94684	-284.13394	-696.245	604.62799	-669.0625	-758.57196	524.03235	-643.35608
378	1.88	-445.40454	150.51405	-553.35577	-496.46771	162.50313	-528.44556	-354.19205	589.06628	-463.17044	-462.47812	564.62378	-443.38446	-352.1048	1045.1912	-647.26477	-694.68958	1088.6399	-530.77094	-665.49518	718.41327	-229.52299	-787.88489	757.25525	-258.43051	-699.5343	626.17853	-649.41333	-755.06018	541.24988	-606.82507
379	1.885	-447.17337	152.21823	-554.94757	-497.17197	164.84312	-527.69629	-348.81189	590.60626	-471.77444	-454.83777	566.97479	-445.19028	-352.85507	1047.4453	-657.23041	-689.16815	1094.7312	-522.95697	-644.11261	734.88965	-211.72966	-767.87952	774.76862	-233.7867	-702.77808	647.48279	-630.14575	-751.87762	558.50385	-570.5943
380	1.89	-449.49524	153.8634	-556.69751	-498.15799	167.04991	-527.01794	-344.51044	591.59058	-480.18335	-448.14117	568.62531	-445.97052	-353.629	1049.5244	-667.74469	-683.33093	1101.5231	-514.99518	-621.6723	751.58704	-195.06084	-746.16913	793.46289	-210.41574	-709.49951	666.92999	-606.92365	-748.42737	576.53137	-533.98987
381	1.895	-452.36703	155.32851	-558.69226	-499.57822	169.10275	-526.77441	-340.42645	592.27875	-488.28448	-440.86502	569.94983	-447.40836	-355.77295	1051.0509	-677.55994	-677.15948	1107.3992	-508.01767	-598.2738	768.49597	-180.37358	-722.66431	813.55627	-188.26573	-715.64569	686.0235	-584.19952	-745.53949	594.26593	-497.56113
382	1.9	-455.61246	156.70702	-560.62103	-500.3819	170.67383	-524.78241	-336.90738	592.48352	-496.01706	-434.07251	570.91913	-448.77579	-358.98572	1051.7804	-687.46228	-671.22504	1113.5975	-500.59604	-574.19464	785.7417	-167.4357	-697.47473	834.27478	-167.68065	-722.53546	704.43347	-560.56311	-742.32977	613.23901	-460.73022
383	1.905	-459.38391	157.70995	-562.21973	-502.298	171.87473	-523.95502	-334.07004	592.26715	-503.19345	-428.54803	571.25006	-449.92188	-362.55206	1052.5066	-697.12939	-664.60199	1119.5405	-494.17749	-549.32153	803.08466	-156.55347	-670.08478	855.59491	-149.40459	-729.69788	721.68835	-535.87256	-739.44965	632.09424	-423.87836
384	1.91	-463.6449	158.1655	-562.85187	-504.51379	173.1059	-523.01862	-331.93912	591.57751	-510.01883	-423.12115	571.43573	-451.90869	-367.41055	1052.4293	-705.98694	-658.54266	1126.0818	-487.08459	-524.24677	820.29675	-147.95032	-642.16779	877.53815	-132.86842	-736.8692	737.52454	-509.26846	-736.60187	651.52692	-386.75372
385	1.915	-467.67511	158.83836	-563.66187	-507.13593	173.70734	-521.07581	-330.76242	590.46857	-516.21594	-417.5574	570.7345	-455.74295	-372.77591	1051.8966	-714.44788	-651.57129	1131.4785	-481.54248	-499.14554	837.04474	-141.45126	-612.5954	899.2478	-119.78293	-744.24225	752.36383	-481.38571	-734.07581	671.12335	-349.29684
386	1.92	-472.08521	158.92462	-563.36707	-509.5939	174.07904	-519.29504	-330.39493	589.0415	-521.99615	-413.90619	570.17065	-457.60663	-379.00891	1050.8086	-722.01453	-644.44373	1136.7191	-475.97046	-474.19467	853.27094	-136.55257	-582.7326	921.06104	-108.90473	-751.87695	765.94684	-451.94235	-731.60602	691.79083	-311.17801
387	1.925	-476.47842	158.96649	-562.39276	-512.47858	174.24019	-516.84222	-330.83524	587.51874	-527.34918	-411.26309	569.4527	-459.25949	-385.74612	1049.1044	-728.65466	-637.73273	1142.2354	-470.43356	-449.71063	868.90033	-133.65906	-552.48267	942.25317	-101.49707	-759.06317	777.56	-419.60544	-729.26154	712.97943	-272.67615
388	1.93	-481.0351	158.80139	-560.76135	-515.41602	174.54489	-513.82294	-331.88834	585.99512	-532.05658	-409.61597	568.7027	-460.69653	-392.43127	1047.0884	-734.76373	-630.82233	1147.7791	-465.59421	-426.42667	883.4588	-131.62013	-522.09467	963.02295	-96.294907	-764.93921	789.56787	-385.37796	-727.56451	734.3728	-233.52467
389	1.935	-485.80032	158.49973	-558.54907	-518.33417	174.23306	-510.77182	-333.23102	584.67432	-536.27209	-409.21545	568.67554	-460.27466	-399.38489	1044.6177	-740.00281	-623.13666	1153.4446	-461.51761	-403.85641	897.18109	-131.34308	-491.98672	982.34656	-94.026405	-771.00214	797.43066	-344.11172	-726.35291	756.10333	-193.55716
390	1.94	-490.41226	158.30927	-556.383	-521.85699	173.99866	-507.28552	-335.31488	583.28058	-539.47046	-409.33661	568.1109	-461.15469	-406.43237	1041.74	-744.48242	-616.93634	1158.9474	-457.99643	-382.48505	910.19171	-132.3369	-462.9408	1000.3448	-94.384109	-775.71484	803.88477	-299.12204	-725.46204	778.64679	-152.73299
391	1.945	-495.38947	157.92949	-553.64459	-525.25854	173.69685	-503.7793	-338.13028	581.89886	-541.26611	-410.16278	567.69031	-461.53342	-413.29056	1038.6531	-748.15686	-609.02161	1164.2653	-453.51273	-363.59036	922.37622	-133.98073	-434.87799	1016.462	-97.909798	-777.43933	811.37061	-252.66325	-725.02679	801.70782	-110.99184
392	1.95	-500.41025	157.53297	-550.698	-529.427	173.63539	-500.24838	-340.86761	580.88562	-542.22583	-411.55569	567.28015	-461.32297	-420.54102	1035.1271	-750.40955	-602.01154	1170.1669	-451.02417	-345.15393	933.57849	-136.47047	-408.78806	1031.2338	-103.30452	-774.8587	821.2934	-205.30693	-725.18964	825.00702	-68.322662
393	1.955	-505.63474	157.04015	-547.47894	-533.50623	172.97752	-496.69885	-343.55222	579.68323	-542.62592	-413.04111	567.08484	-460.17664	-427.46643	1031.5436	-752.49396	-595.2962	1175.2014	-449.25961	-329.10013	944.35754	-139.23543	-385.9299	1044.4231	-109.52733	-767.2262	833.6524	-156.12622	-725.53296	848.61328	-24.93298
394	1.96	-510.72763	156.73132	-544.54169	-537.84052	172.59348	-493.25458	-346.1488	578.82367	-541.79102	-415.56369	566.79797	-458.30835	-433.97729	1028.2997	-753.84222	-588.97729	1179.817	-448.39288	-314.3006	954.36871	-142.28372	-365.68069	1055.7837	-116.99855	-754.27118	847.56958	-103.96783	-725.50311	872.81879	18.926859
395	1.965	-515.85211	156.36778	-541.45685	-542.30731	172.25259	-489.98654	-348.6886	577.56195	-540.38873	-417.62604	565.90253	-457.69669	-440.0762	1025.197	-754.4859	-583.11102	1184.0958	-448.35605	-301.88593	963.55914	-145.37976	-348.86139	1065.5981	-124.63225	-736.14392	861.67035	-48.653362	-725.09387	897.66711	63.576698
396	1.97	-520.77185	155.98215	-538.55389	-546.36829	171.76956	-487.08615	-350.51218	576.48016	-538.81232	-420.17676	565.71906	-454.68384	-445.83765	1022.2042	-754.19122	-578.17371	1187.6943	-449.25323	-291.30075	971.63696	-148.36932	-335.539	1073.9597	-131.96277	-713.31458	875.20398	8.1242847	-724.43091	922.84113	109.13727
397	1.975	-525.23608	155.66896	-535.97351	-550.38531	171.1331	-484.27985	-353.55435	574.90619	-535.77039	-422.80417	564.65948	-452.66782	-450.71362	1019.5363	-754.12372	-573.40717	1190.1404	-450.54324	-284.0372	978.26147	-150.85994	-325.85553	1081.0216	-138.48206	-686.17261	888.56042	62.970749	-683.54517	949.31165	159.80713
398	1.98	-529.13007	155.16621	-533.71521	-553.9328	170.28967	-482.04868	-355.53171	573.60608	-533.0896	-424.62549	563.94452	-451.02322	-454.88309	1017.0156	-753.1723	-570.13965	1191.9584	-452.07877	-280.3558	983.68176	-152.5808	-319.32642	1086.7955	-144.25018	-653.92804	907.8501	114.47957	-638.37604	977.17065	208.16125
399	1.985	-532.75812	154.47234	-531.71484	-557.17847	169.47461	-480.19891	-357.00302	572.25549	-530.67896	-427.14374	563.52405	-447.8508	-457.99744	1014.5826	-751.89331	-567.38098	1193.1588	-454.80707	-278.67709	988.55109	-153.97229	-315.61319	1091.2396	-148.97942	-613.99243	926.70001	164.63792	-587.18066	1007.1656	249.72333
400	1.99	-535.71198	153.72292	-530.28705	-560.11499	168.50447	-478.78033	-358.82559	571.13776	-527.38873	-429.50699	562.62146	-445.39664	-459.64423	1012.6556	-750.32391	-565.67731	1194.026	-456.41425	-278.64685	992.91052	-154.8839	-314.62091	1094.5526	-152.1086	-566.44537	944.20801	210.17163	-533.50427	1038.0945	282.76593
401	1.995	-538.03955	152.79002	-529.3642	-562.71509	167.31584	-478.11502	-359.79437	570.00983	-524.85327	-431.65958	561.55725	-443.29773	-460.22638	1010.7507	-749.36792	-564.97223	1194.5029	-457.49512	-281.49332	996.40985	-154.45261	-316.25726	1096.6793	-152.92838	-516.8833	961.8078	250.40489	-479.87778	1068.5643	306.45377
402	2	-539.90826	151.62839	-528.80084	-564.90369	166.06067	-477.9252	-361.49881	568.77161	-521.59265	-433.36417	560.55029	-441.4314	-459.80789	1009.3768	-748.16022	-565.86664	1195.2404	-455.89001	-285.75766	999.07874	-153.06773	-320.51511	1097.4633	-151.17776	-461.86688	978.9649	280.32092	-427.92737	1094.2452	321.31821
403	2.005	-541.34296	150.38664	-528.70563	-566.90417	164.67711	-478.25241	-362.04636	567.87415	-519.26508	-435.88821	559.16406	-438.86554	-459.22186	1008.0703	-745.89734	-566.93146	1195.1713	-454.91751	-292.24411	1000.4073	-149.90096	-328.18826	1097.927	-147.35182	-404.98587	996.64917	304.12009	-376.6857	1113.0482	330.96118
404	2.01	-542.44379	148.85342	-528.98297	-568.46851	163.20041	-478.82623	-363.07193	566.48444	-516.47333	-437.98767	557.76251	-436.69843	-458.04672	1007.2542	-743.33435	-568.34027	1194.5573	-453.41138	-300.88293	1000.71	-145.01353	-338.23029	1098.7013	-142.65735	-344.38373	1010.3128	317.28485	-322.82178	1126.3508	335.76736
405	2.015	-543.39252	147.12201	-529.604	-569.75128	161.15968	-479.66071	-364.01605	565.08362	-513.41876	-439.96436	555.89075	-434.82147	-456.3674	1006.8096	-740.00861	-569.92572	1193.5583	-451.17426	-309.3826	1000.8092	-139.44562	-348.3631	1100.3519	-137.14865	-302.55978	1018.7743	319.60236	-273.72513	1131.8701	328.3428
406	2.02	-544.30505	145.1877	-530.44507	-571.11169	159.26456	-480.96451	-364.36267	563.42084	-510.96194	-441.23953	553.93317	-433.54172	-454.11688	1006.6233	-736.04077	-571.46271	1192.2219	-448.15222	-316.62085	1000.1838	-133.93962	-356.90677	1103.1874	-129.48958	-289.83289	1025.5	315.01794	-255.17451	1136.7815	325.34961
